<?xml version="1.0" encoding="utf-8"?>
<!-- Generator: Adobe Illustrator 15.1.0, SVG Export Plug-In . SVG Version: 6.00 Build 0)  -->
<!DOCTYPE svg PUBLIC "-//W3C//DTD SVG 1.1//EN" "http://www.w3.org/Graphics/SVG/1.1/DTD/svg11.dtd">
<svg version="1.1" id="Layer_1" xmlns="http://www.w3.org/2000/svg" xmlns:xlink="http://www.w3.org/1999/xlink" x="0px" y="0px"
	 width="360px" height="360px" viewBox="0 0 360 360" enable-background="new 0 0 360 360" xml:space="preserve">
<path fill="#FFFFFF" d="M340.102,322.669c0,9.979-8.092,18.07-18.071,18.07H37.725c-9.98,0-18.07-8.092-18.07-18.07V38.361
	c0-9.979,8.09-18.07,18.07-18.07H322.03c9.979,0,18.071,8.091,18.071,18.07V322.669z"/>
<g>
	<path d="M120.198,155.53c-4.336,3.454-8.51,5.893-12.52,7.314c-4.011,1.422-8.314,2.133-12.91,2.133
		c-7.588,0-13.419-1.737-17.495-5.211c-4.076-3.475-6.113-7.914-6.113-13.318c0-3.169,0.77-6.065,2.309-8.686
		c1.538-2.621,3.554-4.724,6.048-6.309c2.493-1.585,5.3-2.783,8.422-3.596c2.297-0.569,5.766-1.117,10.406-1.646
		c9.451-1.056,16.41-2.316,20.876-3.779c0.042-1.503,0.065-2.458,0.065-2.865c0-4.47-1.105-7.619-3.317-9.448
		c-2.992-2.479-7.437-3.718-13.332-3.718c-5.507,0-9.572,0.905-12.194,2.712c-2.624,1.809-4.563,5.009-5.821,9.6l-11.446-1.463
		c1.041-4.591,2.753-8.299,5.138-11.124c2.384-2.824,5.831-4.998,10.341-6.522c4.509-1.524,9.733-2.286,15.674-2.286
		c5.896,0,10.687,0.65,14.373,1.95c3.685,1.301,6.395,2.937,8.129,4.907c1.734,1.972,2.948,4.46,3.642,7.467
		c0.39,1.87,0.585,5.242,0.585,10.119v14.628c0,10.2,0.249,16.651,0.748,19.353c0.498,2.703,1.485,5.293,2.959,7.771h-12.227
		C121.325,161.24,120.544,158.578,120.198,155.53z M119.223,131.027c-4.25,1.626-10.624,3.008-19.121,4.145
		c-4.813,0.65-8.217,1.382-10.21,2.194c-1.995,0.813-3.534,2.002-4.618,3.566c-1.084,1.564-1.626,3.302-1.626,5.211
		c0,2.926,1.181,5.364,3.544,7.314c2.363,1.95,5.821,2.926,10.373,2.926c4.509,0,8.52-0.924,12.032-2.773
		c3.512-1.849,6.091-4.378,7.739-7.589c1.257-2.478,1.886-6.135,1.886-10.972V131.027z"/>
	<path d="M149.074,163.515V98.783h10.536v9.813c2.688-4.592,5.17-7.619,7.446-9.082c2.276-1.463,4.78-2.194,7.512-2.194
		c3.945,0,7.956,1.179,12.031,3.535l-4.032,10.179c-2.861-1.585-5.723-2.377-8.584-2.377c-2.559,0-4.856,0.722-6.894,2.164
		c-2.039,1.443-3.491,3.444-4.357,6.004c-1.301,3.901-1.951,8.168-1.951,12.8v33.89H149.074z"/>
	<path d="M193.559,163.515V98.783h10.471v9.082c2.167-3.169,5.05-5.719,8.649-7.65c3.598-1.929,7.695-2.895,12.292-2.895
		c5.115,0,9.31,0.996,12.584,2.987c3.273,1.991,5.582,4.775,6.926,8.351c5.464-7.559,12.573-11.337,21.332-11.337
		c6.85,0,12.118,1.778,15.804,5.333c3.685,3.556,5.528,9.031,5.528,16.427v44.435h-11.642v-40.778c0-4.389-0.38-7.548-1.139-9.478
		c-0.759-1.93-2.136-3.484-4.129-4.663c-1.995-1.178-4.337-1.768-7.024-1.768c-4.856,0-8.889,1.514-12.097,4.541
		c-3.209,3.027-4.813,7.874-4.813,14.537v37.608h-11.706v-42.058c0-4.876-0.954-8.533-2.861-10.971
		c-1.909-2.438-5.03-3.657-9.365-3.657c-3.296,0-6.341,0.813-9.138,2.438c-2.797,1.625-4.824,4.003-6.081,7.131
		c-1.258,3.13-1.886,7.64-1.886,13.532v33.585H193.559z"/>
</g>
<path d="M298.84,263.63c0,9.979-8.092,18.07-18.07,18.07H78.985c-9.979,0-18.07-8.092-18.07-18.07v-63.999
	c0-9.979,8.091-18.073,18.07-18.073H280.77c9.979,0,18.07,8.094,18.07,18.073V263.63z"/>
<g>
	<path fill="#FFFFFF" d="M67.55,240.609l9.014-1.164c0.506,2.967,1.916,5.24,4.228,6.82c2.312,1.58,5.545,2.371,9.697,2.371
		c4.186,0,7.292-0.701,9.317-2.102c2.026-1.398,3.039-3.043,3.039-4.928c0-1.691-0.895-3.021-2.684-3.992
		c-1.249-0.666-4.355-1.512-9.317-2.537c-6.684-1.387-11.318-2.586-13.9-3.598s-4.541-2.414-5.874-4.201
		c-1.334-1.789-2-3.764-2-5.928c0-1.969,0.548-3.791,1.646-5.469c1.097-1.678,2.591-3.07,4.481-4.18
		c1.418-0.859,3.35-1.588,5.798-2.184c2.447-0.596,5.072-0.895,7.874-0.895c4.22,0,7.925,0.5,11.115,1.498
		c3.19,0.998,5.545,2.35,7.064,4.055c1.52,1.705,2.565,3.986,3.14,6.842l-8.912,0.998c-0.405-2.273-1.579-4.049-3.52-5.324
		c-1.941-1.275-4.684-1.912-8.229-1.912c-4.187,0-7.174,0.568-8.963,1.705c-1.79,1.137-2.684,2.467-2.684,3.992
		c0,0.971,0.371,1.844,1.114,2.621c0.742,0.805,1.907,1.469,3.494,1.996c0.912,0.277,3.596,0.914,8.052,1.912
		c6.448,1.414,10.946,2.572,13.495,3.473c2.548,0.902,4.549,2.213,6,3.932c1.451,1.719,2.178,3.854,2.178,6.404
		c0,2.496-0.886,4.846-2.659,7.051c-1.772,2.203-4.33,3.908-7.672,5.115c-3.342,1.207-7.123,1.809-11.343,1.809
		c-6.988,0-12.314-1.191-15.977-3.576C70.899,248.83,68.563,245.295,67.55,240.609z"/>
	<path fill="#FFFFFF" d="M142.951,247.098l1.316,6.613c-2.566,0.443-4.861,0.664-6.887,0.664c-3.309,0-5.874-0.43-7.697-1.289
		c-1.823-0.859-3.106-1.988-3.849-3.389c-0.743-1.4-1.114-4.348-1.114-8.838v-25.414h-6.685v-5.822h6.685v-10.938l9.064-4.492v15.43
		h9.166v5.822h-9.166v25.83c0,2.135,0.16,3.508,0.481,4.117c0.32,0.609,0.843,1.096,1.57,1.455c0.726,0.361,1.764,0.541,3.114,0.541
		C139.963,247.389,141.296,247.291,142.951,247.098z"/>
	<path fill="#FFFFFF" d="M151.762,253.793v-44.17h8.204v6.697c2.093-3.135,4.025-5.199,5.798-6.197s3.722-1.498,5.849-1.498
		c3.072,0,6.195,0.805,9.368,2.412l-3.139,6.945c-2.229-1.08-4.457-1.621-6.685-1.621c-1.992,0-3.781,0.492-5.368,1.477
		c-1.587,0.984-2.718,2.35-3.393,4.096c-1.013,2.662-1.52,5.574-1.52,8.734v23.125H151.762z"/>
	<path fill="#FFFFFF" d="M221.491,248.346c-3.376,2.355-6.626,4.02-9.748,4.99c-3.123,0.971-6.474,1.455-10.052,1.455
		c-5.908,0-10.449-1.186-13.622-3.555c-3.173-2.371-4.76-5.4-4.76-9.088c0-2.164,0.6-4.139,1.798-5.928
		c1.198-1.787,2.768-3.223,4.709-4.305s4.127-1.898,6.558-2.453c1.789-0.389,4.49-0.764,8.103-1.123
		c7.359-0.721,12.777-1.58,16.255-2.578c0.033-1.027,0.051-1.678,0.051-1.955c0-3.051-0.861-5.199-2.583-6.447
		c-2.329-1.691-5.79-2.537-10.381-2.537c-4.287,0-7.452,0.617-9.494,1.852c-2.043,1.232-3.554,3.416-4.532,6.551l-8.912-1
		c0.81-3.133,2.144-5.662,4-7.59c1.856-1.926,4.54-3.41,8.052-4.449c3.511-1.041,7.578-1.561,12.204-1.561
		c4.59,0,8.321,0.443,11.19,1.33c2.869,0.889,4.979,2.004,6.33,3.35c1.35,1.344,2.295,3.043,2.836,5.094
		c0.304,1.275,0.456,3.578,0.456,6.904v9.982c0,6.961,0.193,11.361,0.582,13.205c0.388,1.844,1.156,3.611,2.304,5.303h-9.52
		C222.368,252.24,221.761,250.424,221.491,248.346z M220.731,231.625c-3.309,1.109-8.271,2.053-14.888,2.828
		c-3.747,0.443-6.397,0.943-7.95,1.498s-2.752,1.365-3.596,2.434c-0.844,1.066-1.266,2.252-1.266,3.555
		c0,1.996,0.92,3.66,2.76,4.992c1.84,1.33,4.532,1.996,8.077,1.996c3.511,0,6.634-0.631,9.368-1.893s4.742-2.988,6.025-5.178
		c0.979-1.691,1.469-4.188,1.469-7.486V231.625z"/>
	<path fill="#FFFFFF" d="M244.075,270.721v-61.098h8.305v5.74c1.958-2.246,4.169-3.932,6.634-5.055
		c2.464-1.121,5.452-1.684,8.963-1.684c4.591,0,8.642,0.971,12.153,2.912c3.511,1.941,6.16,4.678,7.95,8.213
		c1.789,3.535,2.684,7.412,2.684,11.625c0,4.52-0.987,8.59-2.962,12.207c-1.975,3.619-4.845,6.393-8.608,8.318
		c-3.765,1.928-7.723,2.891-11.875,2.891c-3.038,0-5.765-0.527-8.178-1.58c-2.414-1.053-4.397-2.385-5.95-3.992v21.502H244.075z
		 M252.329,231.957c0,5.686,1.401,9.887,4.203,12.604s6.194,4.076,10.179,4.076c4.051,0,7.52-1.408,10.406-4.223
		c2.887-2.813,4.329-7.174,4.329-13.08c0-5.629-1.409-9.844-4.228-12.645c-2.819-2.799-6.188-4.199-10.103-4.199
		c-3.883,0-7.317,1.49-10.306,4.471C253.823,221.941,252.329,226.273,252.329,231.957z"/>
</g>
<path fill="#FFFFFF" d="M183.566,20.319c0,1.647-1.65,2.983-3.69,2.983l0,0c-2.038,0-3.69-1.336-3.69-2.983V3.27
	c0-1.647,1.652-2.983,3.69-2.983l0,0c2.04,0,3.69,1.336,3.69,2.983V20.319z"/>
<path fill="#FFFFFF" d="M199.835,20.319c0,1.647-1.652,2.983-3.692,2.983l0,0c-2.038,0-3.689-1.336-3.689-2.983V3.27
	c0-1.647,1.651-2.983,3.689-2.983l0,0c2.04,0,3.692,1.336,3.692,2.983V20.319z"/>
<path fill="#FFFFFF" d="M215.764,20.319c0,1.647-1.651,2.983-3.69,2.983l0,0c-2.039,0-3.691-1.336-3.691-2.983V3.27
	c0-1.647,1.652-2.983,3.691-2.983l0,0c2.039,0,3.69,1.336,3.69,2.983V20.319z"/>
<path fill="#FFFFFF" d="M231.692,20.319c0,1.647-1.651,2.983-3.69,2.983l0,0c-2.039,0-3.689-1.336-3.689-2.983V3.27
	c0-1.647,1.65-2.983,3.689-2.983l0,0c2.039,0,3.69,1.336,3.69,2.983V20.319z"/>
<path fill="#FFFFFF" d="M247.622,20.319c0,1.647-1.652,2.983-3.691,2.983l0,0c-2.039,0-3.689-1.336-3.689-2.983V3.27
	c0-1.647,1.65-2.983,3.689-2.983l0,0c2.039,0,3.691,1.336,3.691,2.983V20.319z"/>
<path fill="#FFFFFF" d="M263.551,20.319c0,1.647-1.651,2.983-3.69,2.983l0,0c-2.038,0-3.69-1.336-3.69-2.983V3.27
	c0-1.647,1.652-2.983,3.69-2.983l0,0c2.039,0,3.69,1.336,3.69,2.983V20.319z"/>
<path fill="#FFFFFF" d="M279.479,20.319c0,1.647-1.651,2.983-3.69,2.983l0,0c-2.038,0-3.689-1.336-3.689-2.983V3.27
	c0-1.647,1.651-2.983,3.689-2.983l0,0c2.039,0,3.69,1.336,3.69,2.983V20.319z"/>
<path fill="#FFFFFF" d="M295.409,20.319c0,1.647-1.652,2.983-3.691,2.983l0,0c-2.038,0-3.689-1.336-3.689-2.983V3.27
	c0-1.647,1.651-2.983,3.689-2.983l0,0c2.039,0,3.691,1.336,3.691,2.983V20.319z"/>
<path fill="#FFFFFF" d="M56.472,20.319c0,1.647-1.652,2.983-3.691,2.983l0,0c-2.038,0-3.689-1.336-3.689-2.983V3.27
	c0-1.647,1.651-2.983,3.689-2.983l0,0c2.04,0,3.691,1.336,3.691,2.983V20.319z"/>
<path fill="#FFFFFF" d="M72.401,20.319c0,1.647-1.652,2.983-3.691,2.983l0,0c-2.038,0-3.69-1.336-3.69-2.983V3.27
	c0-1.647,1.652-2.983,3.69-2.983l0,0c2.04,0,3.691,1.336,3.691,2.983V20.319z"/>
<path fill="#FFFFFF" d="M88.33,20.319c0,1.647-1.651,2.983-3.69,2.983l0,0c-2.039,0-3.69-1.336-3.69-2.983V3.27
	c0-1.647,1.652-2.983,3.69-2.983l0,0c2.039,0,3.69,1.336,3.69,2.983V20.319z"/>
<path fill="#FFFFFF" d="M104.259,20.319c0,1.647-1.651,2.983-3.691,2.983l0,0c-2.039,0-3.689-1.336-3.689-2.983V3.27
	c0-1.647,1.651-2.983,3.689-2.983l0,0c2.04,0,3.691,1.336,3.691,2.983V20.319z"/>
<path fill="#FFFFFF" d="M120.188,20.319c0,1.647-1.651,2.983-3.691,2.983l0,0c-2.039,0-3.689-1.336-3.689-2.983V3.27
	c0-1.647,1.651-2.983,3.689-2.983l0,0c2.04,0,3.691,1.336,3.691,2.983V20.319z"/>
<path fill="#FFFFFF" d="M136.118,20.319c0,1.647-1.652,2.983-3.691,2.983l0,0c-2.038,0-3.69-1.336-3.69-2.983V3.27
	c0-1.647,1.652-2.983,3.69-2.983l0,0c2.04,0,3.691,1.336,3.691,2.983V20.319z"/>
<path fill="#FFFFFF" d="M152.047,20.319c0,1.647-1.652,2.983-3.692,2.983l0,0c-2.038,0-3.689-1.336-3.689-2.983V3.27
	c0-1.647,1.651-2.983,3.689-2.983l0,0c2.04,0,3.692,1.336,3.692,2.983V20.319z"/>
<path fill="#FFFFFF" d="M167.976,20.319c0,1.647-1.651,2.983-3.691,2.983l0,0c-2.038,0-3.69-1.336-3.69-2.983V3.27
	c0-1.647,1.652-2.983,3.69-2.983l0,0c2.04,0,3.691,1.336,3.691,2.983V20.319z"/>
<path fill="#FFFFFF" d="M311.338,20.319c0,1.647-1.651,2.983-3.69,2.983l0,0c-2.038,0-3.69-1.336-3.69-2.983V3.27
	c0-1.647,1.652-2.983,3.69-2.983l0,0c2.039,0,3.69,1.336,3.69,2.983V20.319z"/>
<path fill="#FFFFFF" d="M183.566,357.63c0,1.648-1.65,2.985-3.69,2.985l0,0c-2.038,0-3.69-1.337-3.69-2.985v-17.048
	c0-1.649,1.652-2.984,3.69-2.984l0,0c2.04,0,3.69,1.335,3.69,2.984V357.63z"/>
<path fill="#FFFFFF" d="M199.835,357.63c0,1.648-1.652,2.985-3.692,2.985l0,0c-2.038,0-3.689-1.337-3.689-2.985v-17.048
	c0-1.649,1.651-2.984,3.689-2.984l0,0c2.04,0,3.692,1.335,3.692,2.984V357.63z"/>
<path fill="#FFFFFF" d="M215.764,357.63c0,1.648-1.651,2.985-3.69,2.985l0,0c-2.039,0-3.691-1.337-3.691-2.985v-17.048
	c0-1.649,1.652-2.984,3.691-2.984l0,0c2.039,0,3.69,1.335,3.69,2.984V357.63z"/>
<path fill="#FFFFFF" d="M231.692,357.63c0,1.648-1.651,2.985-3.69,2.985l0,0c-2.039,0-3.689-1.337-3.689-2.985v-17.048
	c0-1.649,1.65-2.984,3.689-2.984l0,0c2.039,0,3.69,1.335,3.69,2.984V357.63z"/>
<path fill="#FFFFFF" d="M247.622,357.63c0,1.648-1.652,2.985-3.691,2.985l0,0c-2.039,0-3.689-1.337-3.689-2.985v-17.048
	c0-1.649,1.65-2.984,3.689-2.984l0,0c2.039,0,3.691,1.335,3.691,2.984V357.63z"/>
<path fill="#FFFFFF" d="M263.551,357.63c0,1.648-1.651,2.985-3.69,2.985l0,0c-2.038,0-3.69-1.337-3.69-2.985v-17.048
	c0-1.649,1.652-2.984,3.69-2.984l0,0c2.039,0,3.69,1.335,3.69,2.984V357.63z"/>
<path fill="#FFFFFF" d="M279.479,357.63c0,1.648-1.651,2.985-3.69,2.985l0,0c-2.038,0-3.689-1.337-3.689-2.985v-17.048
	c0-1.649,1.651-2.984,3.689-2.984l0,0c2.039,0,3.69,1.335,3.69,2.984V357.63z"/>
<path fill="#FFFFFF" d="M295.409,357.63c0,1.648-1.652,2.985-3.691,2.985l0,0c-2.038,0-3.689-1.337-3.689-2.985v-17.048
	c0-1.649,1.651-2.984,3.689-2.984l0,0c2.039,0,3.691,1.335,3.691,2.984V357.63z"/>
<path fill="#FFFFFF" d="M56.472,357.63c0,1.648-1.652,2.985-3.691,2.985l0,0c-2.038,0-3.689-1.337-3.689-2.985v-17.048
	c0-1.649,1.651-2.984,3.689-2.984l0,0c2.04,0,3.691,1.335,3.691,2.984V357.63z"/>
<path fill="#FFFFFF" d="M72.401,357.63c0,1.648-1.652,2.985-3.691,2.985l0,0c-2.038,0-3.69-1.337-3.69-2.985v-17.048
	c0-1.649,1.652-2.984,3.69-2.984l0,0c2.04,0,3.691,1.335,3.691,2.984V357.63z"/>
<path fill="#FFFFFF" d="M88.33,357.63c0,1.648-1.651,2.985-3.69,2.985l0,0c-2.039,0-3.69-1.337-3.69-2.985v-17.048
	c0-1.649,1.652-2.984,3.69-2.984l0,0c2.039,0,3.69,1.335,3.69,2.984V357.63z"/>
<path fill="#FFFFFF" d="M104.259,357.63c0,1.648-1.651,2.985-3.691,2.985l0,0c-2.039,0-3.689-1.337-3.689-2.985v-17.048
	c0-1.649,1.651-2.984,3.689-2.984l0,0c2.04,0,3.691,1.335,3.691,2.984V357.63z"/>
<path fill="#FFFFFF" d="M120.188,357.63c0,1.648-1.651,2.985-3.691,2.985l0,0c-2.039,0-3.689-1.337-3.689-2.985v-17.048
	c0-1.649,1.651-2.984,3.689-2.984l0,0c2.04,0,3.691,1.335,3.691,2.984V357.63z"/>
<path fill="#FFFFFF" d="M136.118,357.63c0,1.648-1.652,2.985-3.691,2.985l0,0c-2.038,0-3.69-1.337-3.69-2.985v-17.048
	c0-1.649,1.652-2.984,3.69-2.984l0,0c2.04,0,3.691,1.335,3.691,2.984V357.63z"/>
<path fill="#FFFFFF" d="M152.047,357.63c0,1.648-1.652,2.985-3.692,2.985l0,0c-2.038,0-3.689-1.337-3.689-2.985v-17.048
	c0-1.649,1.651-2.984,3.689-2.984l0,0c2.04,0,3.692,1.335,3.692,2.984V357.63z"/>
<path fill="#FFFFFF" d="M167.976,357.63c0,1.648-1.651,2.985-3.691,2.985l0,0c-2.038,0-3.69-1.337-3.69-2.985v-17.048
	c0-1.649,1.652-2.984,3.69-2.984l0,0c2.04,0,3.691,1.335,3.691,2.984V357.63z"/>
<path fill="#FFFFFF" d="M311.338,357.63c0,1.648-1.651,2.985-3.69,2.985l0,0c-2.038,0-3.69-1.337-3.69-2.985v-17.048
	c0-1.649,1.652-2.984,3.69-2.984l0,0c2.039,0,3.69,1.335,3.69,2.984V357.63z"/>
<path fill="#FFFFFF" d="M19.683,177.164c1.647,0,2.983,1.651,2.983,3.691l0,0c0,2.037-1.336,3.69-2.983,3.69H2.633
	c-1.647,0-2.983-1.653-2.983-3.69l0,0c0-2.04,1.336-3.691,2.983-3.691H19.683z"/>
<path fill="#FFFFFF" d="M19.683,160.896c1.647,0,2.983,1.651,2.983,3.69l0,0c0,2.039-1.336,3.69-2.983,3.69H2.633
	c-1.647,0-2.983-1.652-2.983-3.69l0,0c0-2.04,1.336-3.69,2.983-3.69H19.683z"/>
<path fill="#FFFFFF" d="M19.683,144.967c1.647,0,2.983,1.651,2.983,3.69l0,0c0,2.039-1.336,3.689-2.983,3.689H2.633
	c-1.647,0-2.983-1.651-2.983-3.689l0,0c0-2.04,1.336-3.69,2.983-3.69H19.683z"/>
<path fill="#FFFFFF" d="M19.683,129.038c1.647,0,2.983,1.651,2.983,3.69l0,0c0,2.038-1.336,3.69-2.983,3.69H2.633
	c-1.647,0-2.983-1.652-2.983-3.69l0,0c0-2.04,1.336-3.69,2.983-3.69H19.683z"/>
<path fill="#FFFFFF" d="M19.683,113.108c1.647,0,2.983,1.651,2.983,3.691l0,0c0,2.038-1.336,3.689-2.983,3.689H2.633
	c-1.647,0-2.983-1.651-2.983-3.689l0,0c0-2.04,1.336-3.691,2.983-3.691H19.683z"/>
<path fill="#FFFFFF" d="M19.683,97.179c1.647,0,2.983,1.652,2.983,3.691l0,0c0,2.038-1.336,3.689-2.983,3.689H2.633
	c-1.647,0-2.983-1.651-2.983-3.689l0,0c0-2.04,1.336-3.691,2.983-3.691H19.683z"/>
<path fill="#FFFFFF" d="M19.683,81.25c1.647,0,2.983,1.651,2.983,3.691l0,0c0,2.039-1.336,3.69-2.983,3.69H2.633
	c-1.647,0-2.983-1.651-2.983-3.69l0,0c0-2.04,1.336-3.691,2.983-3.691H19.683z"/>
<path fill="#FFFFFF" d="M19.683,65.321c1.647,0,2.983,1.651,2.983,3.691l0,0c0,2.038-1.336,3.689-2.983,3.689H2.633
	c-1.647,0-2.983-1.651-2.983-3.689l0,0c0-2.04,1.336-3.691,2.983-3.691H19.683z"/>
<path fill="#FFFFFF" d="M19.683,304.259c1.647,0,2.983,1.65,2.983,3.691l0,0c0,2.038-1.336,3.688-2.983,3.688H2.633
	c-1.647,0-2.983-1.649-2.983-3.688l0,0c0-2.041,1.336-3.691,2.983-3.691H19.683z"/>
<path fill="#FFFFFF" d="M19.683,288.329c1.647,0,2.983,1.65,2.983,3.692l0,0c0,2.038-1.336,3.688-2.983,3.688H2.633
	c-1.647,0-2.983-1.649-2.983-3.688l0,0c0-2.042,1.336-3.692,2.983-3.692H19.683z"/>
<path fill="#FFFFFF" d="M19.683,272.4c1.647,0,2.983,1.65,2.983,3.692l0,0c0,2.037-1.336,3.687-2.983,3.687H2.633
	c-1.647,0-2.983-1.649-2.983-3.687l0,0c0-2.042,1.336-3.692,2.983-3.692H19.683z"/>
<path fill="#FFFFFF" d="M19.683,256.47c1.647,0,2.983,1.653,2.983,3.691l0,0c0,2.038-1.336,3.69-2.983,3.69H2.633
	c-1.647,0-2.983-1.652-2.983-3.69l0,0c0-2.038,1.336-3.691,2.983-3.691H19.683z"/>
<path fill="#FFFFFF" d="M19.683,240.541c1.647,0,2.983,1.653,2.983,3.691l0,0c0,2.037-1.336,3.69-2.983,3.69H2.633
	c-1.647,0-2.983-1.653-2.983-3.69l0,0c0-2.038,1.336-3.691,2.983-3.691H19.683z"/>
<path fill="#FFFFFF" d="M19.683,224.612c1.647,0,2.983,1.652,2.983,3.69l0,0c0,2.038-1.336,3.691-2.983,3.691H2.633
	c-1.647,0-2.983-1.653-2.983-3.691l0,0c0-2.038,1.336-3.69,2.983-3.69H19.683z"/>
<path fill="#FFFFFF" d="M19.683,208.682c1.647,0,2.983,1.654,2.983,3.692l0,0c0,2.038-1.336,3.69-2.983,3.69H2.633
	c-1.647,0-2.983-1.652-2.983-3.69l0,0c0-2.038,1.336-3.692,2.983-3.692H19.683z"/>
<path fill="#FFFFFF" d="M19.683,192.753c1.647,0,2.983,1.654,2.983,3.691l0,0c0,2.038-1.336,3.691-2.983,3.691H2.633
	c-1.647,0-2.983-1.653-2.983-3.691l0,0c0-2.037,1.336-3.691,2.983-3.691H19.683z"/>
<path fill="#FFFFFF" d="M19.683,49.392c1.647,0,2.983,1.651,2.983,3.691l0,0c0,2.039-1.336,3.689-2.983,3.689H2.633
	c-1.647,0-2.983-1.651-2.983-3.689l0,0c0-2.04,1.336-3.691,2.983-3.691H19.683z"/>
<path fill="#FFFFFF" d="M356.993,177.164c1.648,0,2.985,1.651,2.985,3.691l0,0c0,2.037-1.337,3.69-2.985,3.69h-17.048
	c-1.649,0-2.984-1.653-2.984-3.69l0,0c0-2.04,1.335-3.691,2.984-3.691H356.993z"/>
<path fill="#FFFFFF" d="M356.993,160.896c1.648,0,2.985,1.651,2.985,3.69l0,0c0,2.039-1.337,3.69-2.985,3.69h-17.048
	c-1.649,0-2.984-1.652-2.984-3.69l0,0c0-2.04,1.335-3.69,2.984-3.69H356.993z"/>
<path fill="#FFFFFF" d="M356.993,144.967c1.648,0,2.985,1.651,2.985,3.69l0,0c0,2.039-1.337,3.689-2.985,3.689h-17.048
	c-1.649,0-2.984-1.651-2.984-3.689l0,0c0-2.04,1.335-3.69,2.984-3.69H356.993z"/>
<path fill="#FFFFFF" d="M356.993,129.038c1.648,0,2.985,1.651,2.985,3.69l0,0c0,2.038-1.337,3.69-2.985,3.69h-17.048
	c-1.649,0-2.984-1.652-2.984-3.69l0,0c0-2.04,1.335-3.69,2.984-3.69H356.993z"/>
<path fill="#FFFFFF" d="M356.993,113.108c1.648,0,2.985,1.651,2.985,3.691l0,0c0,2.038-1.337,3.689-2.985,3.689h-17.048
	c-1.649,0-2.984-1.651-2.984-3.689l0,0c0-2.04,1.335-3.691,2.984-3.691H356.993z"/>
<path fill="#FFFFFF" d="M356.993,97.179c1.648,0,2.985,1.652,2.985,3.691l0,0c0,2.038-1.337,3.689-2.985,3.689h-17.048
	c-1.649,0-2.984-1.651-2.984-3.689l0,0c0-2.04,1.335-3.691,2.984-3.691H356.993z"/>
<path fill="#FFFFFF" d="M356.993,81.25c1.648,0,2.985,1.651,2.985,3.691l0,0c0,2.039-1.337,3.69-2.985,3.69h-17.048
	c-1.649,0-2.984-1.651-2.984-3.69l0,0c0-2.04,1.335-3.691,2.984-3.691H356.993z"/>
<path fill="#FFFFFF" d="M356.993,65.321c1.648,0,2.985,1.651,2.985,3.691l0,0c0,2.038-1.337,3.689-2.985,3.689h-17.048
	c-1.649,0-2.984-1.651-2.984-3.689l0,0c0-2.04,1.335-3.691,2.984-3.691H356.993z"/>
<path fill="#FFFFFF" d="M356.993,304.259c1.648,0,2.985,1.65,2.985,3.691l0,0c0,2.038-1.337,3.688-2.985,3.688h-17.048
	c-1.649,0-2.984-1.649-2.984-3.688l0,0c0-2.041,1.335-3.691,2.984-3.691H356.993z"/>
<path fill="#FFFFFF" d="M356.993,288.329c1.648,0,2.985,1.65,2.985,3.692l0,0c0,2.038-1.337,3.688-2.985,3.688h-17.048
	c-1.649,0-2.984-1.649-2.984-3.688l0,0c0-2.042,1.335-3.692,2.984-3.692H356.993z"/>
<path fill="#FFFFFF" d="M356.993,272.4c1.648,0,2.985,1.65,2.985,3.692l0,0c0,2.037-1.337,3.687-2.985,3.687h-17.048
	c-1.649,0-2.984-1.649-2.984-3.687l0,0c0-2.042,1.335-3.692,2.984-3.692H356.993z"/>
<path fill="#FFFFFF" d="M356.993,256.47c1.648,0,2.985,1.653,2.985,3.691l0,0c0,2.038-1.337,3.69-2.985,3.69h-17.048
	c-1.649,0-2.984-1.652-2.984-3.69l0,0c0-2.038,1.335-3.691,2.984-3.691H356.993z"/>
<path fill="#FFFFFF" d="M356.993,240.541c1.648,0,2.985,1.653,2.985,3.691l0,0c0,2.037-1.337,3.69-2.985,3.69h-17.048
	c-1.649,0-2.984-1.653-2.984-3.69l0,0c0-2.038,1.335-3.691,2.984-3.691H356.993z"/>
<path fill="#FFFFFF" d="M356.993,224.612c1.648,0,2.985,1.652,2.985,3.69l0,0c0,2.038-1.337,3.691-2.985,3.691h-17.048
	c-1.649,0-2.984-1.653-2.984-3.691l0,0c0-2.038,1.335-3.69,2.984-3.69H356.993z"/>
<path fill="#FFFFFF" d="M356.993,208.682c1.648,0,2.985,1.654,2.985,3.692l0,0c0,2.038-1.337,3.69-2.985,3.69h-17.048
	c-1.649,0-2.984-1.652-2.984-3.69l0,0c0-2.038,1.335-3.692,2.984-3.692H356.993z"/>
<path fill="#FFFFFF" d="M356.993,192.753c1.648,0,2.985,1.654,2.985,3.691l0,0c0,2.038-1.337,3.691-2.985,3.691h-17.048
	c-1.649,0-2.984-1.653-2.984-3.691l0,0c0-2.037,1.335-3.691,2.984-3.691H356.993z"/>
<path fill="#FFFFFF" d="M356.993,49.392c1.648,0,2.985,1.651,2.985,3.691l0,0c0,2.039-1.337,3.689-2.985,3.689h-17.048
	c-1.649,0-2.984-1.651-2.984-3.689l0,0c0-2.04,1.335-3.691,2.984-3.691H356.993z"/>
</svg>
